<mxfile host="65bd71144e">
    <diagram name="Celery Worker Start Sequence" id="CG0WEzivMsWHMnXGh6-Q">
        <mxGraphModel dx="1089" dy="757" grid="0" gridSize="10" guides="1" tooltips="1" connect="1" arrows="1" fold="1" page="1" pageScale="1" pageWidth="1100" pageHeight="850" math="0" shadow="0">
            <root>
                <mxCell id="7ChuR_gHnuhYMlFIEG1E-0"/>
                <mxCell id="7ChuR_gHnuhYMlFIEG1E-1" parent="7ChuR_gHnuhYMlFIEG1E-0"/>
                <mxCell id="yaNxyFaL7UBeUYRLCmPh-2" value="main" style="shape=umlLifeline;perimeter=lifelinePerimeter;whiteSpace=wrap;html=1;container=1;collapsible=0;recursiveResize=0;outlineConnect=0;fontFamily=Courier New;rounded=0;sketch=1;curveFitting=1;jiggle=2;" vertex="1" parent="7ChuR_gHnuhYMlFIEG1E-1">
                    <mxGeometry x="212" y="206" width="100" height="536" as="geometry"/>
                </mxCell>
                <mxCell id="P4gZzOSqVIwtkL2uwm89-0" value="config.settings" style="shape=umlLifeline;perimeter=lifelinePerimeter;whiteSpace=wrap;html=1;container=1;collapsible=0;recursiveResize=0;outlineConnect=0;fontFamily=Courier New;rounded=0;sketch=1;curveFitting=1;jiggle=2;" vertex="1" parent="7ChuR_gHnuhYMlFIEG1E-1">
                    <mxGeometry x="372" y="206" width="130" height="259" as="geometry"/>
                </mxCell>
                <object label="" id="UtHZPiYnAMymgDmE4glT-6">
                    <mxCell style="html=1;points=[];perimeter=orthogonalPerimeter;fontFamily=Courier New;rounded=0;sketch=1;curveFitting=1;jiggle=2;" vertex="1" parent="P4gZzOSqVIwtkL2uwm89-0">
                        <mxGeometry x="60" y="100" width="10" height="137" as="geometry"/>
                    </mxCell>
                </object>
                <mxCell id="UtHZPiYnAMymgDmE4glT-7" value="&lt;div style=&quot;color: rgb(204, 204, 204); background-color: rgb(31, 31, 31); font-family: Menlo, Monaco, &amp;quot;Courier New&amp;quot;, monospace; line-height: 18px;&quot;&gt;&lt;font style=&quot;font-size: 8px;&quot;&gt;&lt;span style=&quot;color: rgb(197, 134, 192);&quot;&gt;import&lt;/span&gt; &lt;span style=&quot;color: rgb(78, 201, 176);&quot;&gt;config&lt;/span&gt;.&lt;span style=&quot;color: rgb(78, 201, 176);&quot;&gt;settings&lt;/span&gt; &lt;span style=&quot;color: rgb(197, 134, 192);&quot;&gt;as&lt;/span&gt; &lt;span style=&quot;color: rgb(78, 201, 176);&quot;&gt;settings&lt;/span&gt;&lt;/font&gt;&lt;/div&gt;" style="html=1;verticalAlign=bottom;endArrow=block;entryX=0;entryY=0;fontFamily=Courier New;rounded=0;sketch=1;curveFitting=1;jiggle=2;" edge="1" target="UtHZPiYnAMymgDmE4glT-6" parent="7ChuR_gHnuhYMlFIEG1E-1" source="yaNxyFaL7UBeUYRLCmPh-2">
                    <mxGeometry relative="1" as="geometry">
                        <mxPoint x="352" y="306" as="sourcePoint"/>
                    </mxGeometry>
                </mxCell>
                <mxCell id="2MKo5IptKI-W6dlgVg91-7" value="&lt;font style=&quot;&quot;&gt;&lt;div style=&quot;background-color: rgb(31, 31, 31); line-height: 18px;&quot;&gt;&lt;font color=&quot;#ffffff&quot; face=&quot;Helvetica&quot; style=&quot;&quot;&gt;&lt;span style=&quot;font-size: 8px;&quot;&gt;DB conn, Bot Configuration, Broker conf&lt;/span&gt;&lt;/font&gt;&lt;/div&gt;&lt;div style=&quot;color: rgb(204, 204, 204); background-color: rgb(31, 31, 31); font-family: Menlo, Monaco, &amp;quot;Courier New&amp;quot;, monospace; line-height: 18px;&quot;&gt;&lt;font style=&quot;font-size: 8px;&quot;&gt;&lt;span style=&quot;color: rgb(78, 201, 176);&quot;&gt;- os&lt;/span&gt;.&lt;span style=&quot;color: rgb(220, 220, 170);&quot;&gt;getenv&lt;/span&gt;(&lt;span style=&quot;color: rgb(206, 145, 120);&quot;&gt;'MONGO_DB_...'&lt;/span&gt;, &lt;span style=&quot;color: rgb(206, 145, 120);&quot;&gt;'...'&lt;/span&gt;)&lt;br&gt;&lt;/font&gt;&lt;/div&gt;&lt;/font&gt;&lt;div style=&quot;color: rgb(204, 204, 204); background-color: rgb(31, 31, 31); font-family: Menlo, Monaco, &amp;quot;Courier New&amp;quot;, monospace; line-height: 18px;&quot;&gt;&lt;font style=&quot;font-size: 8px;&quot;&gt;&lt;span style=&quot;color: #9cdcfe;&quot;&gt;- bot_config&lt;/span&gt; &lt;span style=&quot;color: #d4d4d4;&quot;&gt;=&lt;/span&gt; &lt;/font&gt;&lt;font style=&quot;font-size: 8px;&quot;&gt;&lt;span style=&quot;color: #dcdcaa;&quot;&gt;load_config&lt;/span&gt;(&lt;span style=&quot;color: #4fc1ff;&quot;&gt;BOT_CONFIG_FILE_PATH&lt;/span&gt;)&lt;br&gt;&lt;span style=&quot;color: rgb(156, 220, 254);&quot;&gt;- broker_url&lt;/span&gt;&amp;nbsp;&lt;span style=&quot;color: rgb(212, 212, 212);&quot;&gt;=&lt;/span&gt;&amp;nbsp;&lt;span style=&quot;color: rgb(206, 145, 120);&quot;&gt;'redis://localhost:6379/0'&lt;br&gt;...&lt;/span&gt;&lt;br&gt;&lt;/font&gt;&lt;/div&gt;" style="text;html=1;strokeColor=none;fillColor=none;align=left;verticalAlign=middle;whiteSpace=wrap;rounded=0;fontFamily=Courier New;sketch=1;curveFitting=1;jiggle=2;" vertex="1" parent="7ChuR_gHnuhYMlFIEG1E-1">
                    <mxGeometry x="447" y="336" width="250" height="30" as="geometry"/>
                </mxCell>
                <mxCell id="nc_N_8GYF1ggVoSAfLeU-0" value="celery -A main.celery_app worker --loglevel=info -E" style="html=1;verticalAlign=bottom;endArrow=block;fontFamily=Helvetica;fontSize=8;fontColor=#FFFFFF;rounded=0;sketch=1;curveFitting=1;jiggle=2;" edge="1" parent="7ChuR_gHnuhYMlFIEG1E-1">
                    <mxGeometry width="80" relative="1" as="geometry">
                        <mxPoint x="42" y="276" as="sourcePoint"/>
                        <mxPoint x="262" y="276" as="targetPoint"/>
                    </mxGeometry>
                </mxCell>
                <mxCell id="4FNtNvEQLOo206UtKwH0-2" value="&lt;span style=&quot;font-family: &amp;quot;Courier New&amp;quot;; font-size: 12px;&quot;&gt;mongoengine&lt;/span&gt;" style="shape=umlLifeline;perimeter=lifelinePerimeter;whiteSpace=wrap;html=1;container=1;collapsible=0;recursiveResize=0;outlineConnect=0;hachureGap=4;fontFamily=Architects Daughter;fontSource=https%3A%2F%2Ffonts.googleapis.com%2Fcss%3Ffamily%3DArchitects%2BDaughter;fontSize=20;rounded=0;sketch=1;curveFitting=1;jiggle=2;" vertex="1" parent="7ChuR_gHnuhYMlFIEG1E-1">
                    <mxGeometry x="582" y="206" width="130" height="400" as="geometry"/>
                </mxCell>
                <mxCell id="4FNtNvEQLOo206UtKwH0-4" value="" style="html=1;points=[];perimeter=orthogonalPerimeter;sketch=1;hachureGap=4;jiggle=2;curveFitting=1;fontFamily=Architects Daughter;fontSource=https%3A%2F%2Ffonts.googleapis.com%2Fcss%3Ffamily%3DArchitects%2BDaughter;fontSize=20;" vertex="1" parent="4FNtNvEQLOo206UtKwH0-2">
                    <mxGeometry x="60" y="310" width="10" height="80" as="geometry"/>
                </mxCell>
                <mxCell id="nc_N_8GYF1ggVoSAfLeU-2" value="&lt;font style=&quot;font-size: 8px;&quot;&gt;&lt;div style=&quot;background-color: rgb(31, 31, 31); line-height: 18px;&quot;&gt;&lt;div style=&quot;color: rgb(204, 204, 204); font-family: Menlo, Monaco, &amp;quot;Courier New&amp;quot;, monospace; line-height: 18px;&quot;&gt;&lt;div&gt;&lt;span style=&quot;color: #dcdcaa;&quot;&gt;connect&lt;/span&gt;(&lt;span style=&quot;color: rgb(156, 220, 254);&quot;&gt;db&lt;/span&gt;&lt;span style=&quot;color: rgb(212, 212, 212);&quot;&gt;=&lt;/span&gt;&lt;span style=&quot;color: rgb(78, 201, 176);&quot;&gt;settings&lt;/span&gt;.&lt;span style=&quot;color: rgb(156, 220, 254);&quot;&gt;MONGO_DB_NAME&lt;/span&gt;,&lt;span style=&quot;color: rgb(156, 220, 254);&quot;&gt;host&lt;/span&gt;&lt;span style=&quot;color: rgb(212, 212, 212);&quot;&gt;=&lt;/span&gt;&lt;span style=&quot;color: rgb(78, 201, 176);&quot;&gt;settings&lt;/span&gt;.&lt;span style=&quot;color: rgb(156, 220, 254);&quot;&gt;MONGO_HOST&lt;/span&gt;,&amp;nbsp;&lt;span style=&quot;color: rgb(156, 220, 254);&quot;&gt;port&lt;/span&gt;&lt;span style=&quot;color: rgb(212, 212, 212);&quot;&gt;=&lt;/span&gt;&lt;span style=&quot;color: rgb(78, 201, 176);&quot;&gt;settings&lt;/span&gt;.&lt;span style=&quot;color: rgb(156, 220, 254);&quot;&gt;MONGO_PORT&lt;/span&gt;)&lt;/div&gt;&lt;/div&gt;&lt;/div&gt;&lt;/font&gt;" style="text;html=1;strokeColor=none;fillColor=none;align=left;verticalAlign=middle;whiteSpace=wrap;rounded=0;fontFamily=Courier New;sketch=1;curveFitting=1;jiggle=2;" vertex="1" parent="7ChuR_gHnuhYMlFIEG1E-1">
                    <mxGeometry x="244" y="491" width="157" height="30" as="geometry"/>
                </mxCell>
                <mxCell id="Mec3C4Xkln7ZPjNAbKgW-0" value="&lt;span style=&quot;font-family: &amp;quot;Courier New&amp;quot;; font-size: 12px;&quot;&gt;celery...worker&lt;/span&gt;" style="shape=umlLifeline;perimeter=lifelinePerimeter;whiteSpace=wrap;html=1;container=1;collapsible=0;recursiveResize=0;outlineConnect=0;hachureGap=4;fontFamily=Architects Daughter;fontSource=https%3A%2F%2Ffonts.googleapis.com%2Fcss%3Ffamily%3DArchitects%2BDaughter;fontSize=20;rounded=0;sketch=1;curveFitting=1;jiggle=2;" vertex="1" parent="7ChuR_gHnuhYMlFIEG1E-1">
                    <mxGeometry x="802" y="206" width="130" height="551" as="geometry"/>
                </mxCell>
                <mxCell id="Mec3C4Xkln7ZPjNAbKgW-1" value="" style="html=1;points=[];perimeter=orthogonalPerimeter;sketch=1;hachureGap=4;jiggle=2;curveFitting=1;fontFamily=Architects Daughter;fontSource=https%3A%2F%2Ffonts.googleapis.com%2Fcss%3Ffamily%3DArchitects%2BDaughter;fontSize=20;" vertex="1" parent="Mec3C4Xkln7ZPjNAbKgW-0">
                    <mxGeometry x="60" y="427" width="10" height="110" as="geometry"/>
                </mxCell>
                <mxCell id="Mec3C4Xkln7ZPjNAbKgW-2" value="&lt;div style=&quot;color: rgb(204, 204, 204); background-color: rgb(31, 31, 31); font-family: Menlo, Monaco, &amp;quot;Courier New&amp;quot;, monospace; line-height: 18px;&quot;&gt;&lt;br&gt;&lt;/div&gt;" style="html=1;verticalAlign=bottom;endArrow=block;fontFamily=Courier New;rounded=0;sketch=1;curveFitting=1;jiggle=2;entryX=0;entryY=0.075;entryDx=0;entryDy=0;entryPerimeter=0;" edge="1" parent="7ChuR_gHnuhYMlFIEG1E-1" source="yaNxyFaL7UBeUYRLCmPh-2" target="Mec3C4Xkln7ZPjNAbKgW-1">
                    <mxGeometry relative="1" as="geometry">
                        <mxPoint x="682" y="639.0000000000003" as="sourcePoint"/>
                        <mxPoint x="857.5" y="639" as="targetPoint"/>
                    </mxGeometry>
                </mxCell>
                <mxCell id="Mec3C4Xkln7ZPjNAbKgW-3" value="&lt;span style=&quot;font-family: Menlo, Monaco, &amp;quot;Courier New&amp;quot;, monospace; background-color: rgb(31, 31, 31); color: rgb(156, 220, 254);&quot;&gt;celery_app&lt;/span&gt;&lt;span style=&quot;color: rgb(204, 204, 204); font-family: Menlo, Monaco, &amp;quot;Courier New&amp;quot;, monospace; background-color: rgb(31, 31, 31);&quot;&gt;.&lt;/span&gt;&lt;span style=&quot;font-family: Menlo, Monaco, &amp;quot;Courier New&amp;quot;, monospace; background-color: rgb(31, 31, 31); color: rgb(220, 220, 170);&quot;&gt;config_from_object&lt;/span&gt;&lt;span style=&quot;color: rgb(204, 204, 204); font-family: Menlo, Monaco, &amp;quot;Courier New&amp;quot;, monospace; background-color: rgb(31, 31, 31);&quot;&gt;(&lt;/span&gt;&lt;span style=&quot;font-family: Menlo, Monaco, &amp;quot;Courier New&amp;quot;, monospace; background-color: rgb(31, 31, 31); color: rgb(206, 145, 120);&quot;&gt;'config.settings'&lt;/span&gt;&lt;span style=&quot;color: rgb(204, 204, 204); font-family: Menlo, Monaco, &amp;quot;Courier New&amp;quot;, monospace; background-color: rgb(31, 31, 31);&quot;&gt;)&lt;br&gt;run()&lt;br&gt;&lt;/span&gt;" style="edgeLabel;html=1;align=center;verticalAlign=middle;resizable=0;points=[];fontSize=8;fontFamily=Architects Daughter;" vertex="1" connectable="0" parent="Mec3C4Xkln7ZPjNAbKgW-2">
                    <mxGeometry x="-0.2192" y="5" relative="1" as="geometry">
                        <mxPoint y="21" as="offset"/>
                    </mxGeometry>
                </mxCell>
                <mxCell id="4FNtNvEQLOo206UtKwH0-6" value="&lt;div style=&quot;color: rgb(204, 204, 204); background-color: rgb(31, 31, 31); font-family: Menlo, Monaco, &amp;quot;Courier New&amp;quot;, monospace; line-height: 18px;&quot;&gt;&lt;br&gt;&lt;/div&gt;" style="html=1;verticalAlign=bottom;endArrow=block;fontFamily=Courier New;rounded=0;sketch=1;curveFitting=1;jiggle=2;" edge="1" parent="7ChuR_gHnuhYMlFIEG1E-1" source="yaNxyFaL7UBeUYRLCmPh-2" target="4FNtNvEQLOo206UtKwH0-4">
                    <mxGeometry relative="1" as="geometry">
                        <mxPoint x="471.5" y="526.0000000000003" as="sourcePoint"/>
                        <mxPoint x="642" y="523" as="targetPoint"/>
                    </mxGeometry>
                </mxCell>
            </root>
        </mxGraphModel>
    </diagram>
    <diagram name="FastAPI Start App Dataflow" id="fyhIcn52rHK9sOi5bDsG">
        <mxGraphModel dx="944" dy="656" grid="0" gridSize="10" guides="1" tooltips="1" connect="1" arrows="1" fold="1" page="1" pageScale="1" pageWidth="1100" pageHeight="850" background="none" math="0" shadow="0">
            <root>
                <mxCell id="jVToiQ2Ih4FxH2Exb9cz-0"/>
                <mxCell id="jVToiQ2Ih4FxH2Exb9cz-1" parent="jVToiQ2Ih4FxH2Exb9cz-0"/>
                <mxCell id="jVToiQ2Ih4FxH2Exb9cz-2" value="main" style="shape=umlLifeline;perimeter=lifelinePerimeter;whiteSpace=wrap;html=1;container=1;collapsible=0;recursiveResize=0;outlineConnect=0;fontFamily=Courier New;rounded=0;sketch=1;curveFitting=1;jiggle=2;" vertex="1" parent="jVToiQ2Ih4FxH2Exb9cz-1">
                    <mxGeometry x="99" y="129" width="100" height="502" as="geometry"/>
                </mxCell>
                <mxCell id="Y1pKb2DhGDYWR2Giz3Zf-0" value="&lt;div style=&quot;color: rgb(204, 204, 204); background-color: rgb(31, 31, 31); font-family: Menlo, Monaco, &amp;quot;Courier New&amp;quot;, monospace; line-height: 18px;&quot;&gt;&lt;div style=&quot;line-height: 18px;&quot;&gt;&lt;font style=&quot;font-size: 8px;&quot;&gt;&lt;span style=&quot;color: rgb(156, 220, 254);&quot;&gt;app&lt;/span&gt;.&lt;span style=&quot;color: rgb(220, 220, 170);&quot;&gt;include_router&lt;/span&gt;(&lt;span style=&quot;color: rgb(156, 220, 254);&quot;&gt;api_router&lt;/span&gt;)&lt;/font&gt;&lt;/div&gt;&lt;/div&gt;" style="html=1;verticalAlign=bottom;endArrow=block;fontFamily=Courier New;rounded=0;sketch=1;curveFitting=1;jiggle=2;entryX=-0.049;entryY=0.05;entryDx=0;entryDy=0;entryPerimeter=0;" edge="1" parent="jVToiQ2Ih4FxH2Exb9cz-2" target="qUzdqzggXnaoJ-nQjmiY-1">
                    <mxGeometry relative="1" as="geometry">
                        <mxPoint x="49.5" y="255.0000000000001" as="sourcePoint"/>
                        <mxPoint x="494.5" y="255.0000000000001" as="targetPoint"/>
                    </mxGeometry>
                </mxCell>
                <mxCell id="jVToiQ2Ih4FxH2Exb9cz-4" value="config.settings" style="shape=umlLifeline;perimeter=lifelinePerimeter;whiteSpace=wrap;html=1;container=1;collapsible=0;recursiveResize=0;outlineConnect=0;fontFamily=Courier New;rounded=0;sketch=1;curveFitting=1;jiggle=2;" vertex="1" parent="jVToiQ2Ih4FxH2Exb9cz-1">
                    <mxGeometry x="259" y="129" width="130" height="215" as="geometry"/>
                </mxCell>
                <object label="" id="jVToiQ2Ih4FxH2Exb9cz-5">
                    <mxCell style="html=1;points=[];perimeter=orthogonalPerimeter;fontFamily=Courier New;rounded=0;sketch=1;curveFitting=1;jiggle=2;" vertex="1" parent="jVToiQ2Ih4FxH2Exb9cz-4">
                        <mxGeometry x="60" y="100" width="10" height="80" as="geometry"/>
                    </mxCell>
                </object>
                <mxCell id="jVToiQ2Ih4FxH2Exb9cz-9" value="&lt;div style=&quot;color: rgb(204, 204, 204); background-color: rgb(31, 31, 31); font-family: Menlo, Monaco, &amp;quot;Courier New&amp;quot;, monospace; line-height: 18px;&quot;&gt;&lt;font style=&quot;font-size: 8px;&quot;&gt;&lt;span style=&quot;color: rgb(197, 134, 192);&quot;&gt;import&lt;/span&gt; &lt;span style=&quot;color: rgb(78, 201, 176);&quot;&gt;config&lt;/span&gt;.&lt;span style=&quot;color: rgb(78, 201, 176);&quot;&gt;settings&lt;/span&gt; &lt;span style=&quot;color: rgb(197, 134, 192);&quot;&gt;as&lt;/span&gt; &lt;span style=&quot;color: rgb(78, 201, 176);&quot;&gt;settings&lt;/span&gt;&lt;/font&gt;&lt;/div&gt;" style="html=1;verticalAlign=bottom;endArrow=block;entryX=0;entryY=0;fontFamily=Courier New;rounded=0;sketch=1;curveFitting=1;jiggle=2;" edge="1" parent="jVToiQ2Ih4FxH2Exb9cz-1" source="jVToiQ2Ih4FxH2Exb9cz-2" target="jVToiQ2Ih4FxH2Exb9cz-5">
                    <mxGeometry relative="1" as="geometry">
                        <mxPoint x="239" y="229" as="sourcePoint"/>
                    </mxGeometry>
                </mxCell>
                <mxCell id="jVToiQ2Ih4FxH2Exb9cz-10" value="&lt;font style=&quot;&quot;&gt;&lt;div style=&quot;background-color: rgb(31, 31, 31); line-height: 18px;&quot;&gt;&lt;font color=&quot;#ffffff&quot; face=&quot;Helvetica&quot; style=&quot;&quot;&gt;&lt;span style=&quot;font-size: 8px;&quot;&gt;Load DB conn and Bot Configuration&lt;/span&gt;&lt;/font&gt;&lt;/div&gt;&lt;div style=&quot;color: rgb(204, 204, 204); background-color: rgb(31, 31, 31); font-family: Menlo, Monaco, &amp;quot;Courier New&amp;quot;, monospace; line-height: 18px;&quot;&gt;&lt;font style=&quot;font-size: 8px;&quot;&gt;&lt;span style=&quot;color: rgb(78, 201, 176);&quot;&gt;- os&lt;/span&gt;.&lt;span style=&quot;color: rgb(220, 220, 170);&quot;&gt;getenv&lt;/span&gt;(&lt;span style=&quot;color: rgb(206, 145, 120);&quot;&gt;'MONGO_DB_...'&lt;/span&gt;, &lt;span style=&quot;color: rgb(206, 145, 120);&quot;&gt;'...'&lt;/span&gt;)&lt;br&gt;&lt;/font&gt;&lt;/div&gt;&lt;/font&gt;&lt;div style=&quot;color: rgb(204, 204, 204); background-color: rgb(31, 31, 31); font-family: Menlo, Monaco, &amp;quot;Courier New&amp;quot;, monospace; line-height: 18px;&quot;&gt;&lt;font style=&quot;font-size: 8px;&quot;&gt;&lt;span style=&quot;color: #9cdcfe;&quot;&gt;- bot_config&lt;/span&gt; &lt;span style=&quot;color: #d4d4d4;&quot;&gt;=&lt;/span&gt; &lt;/font&gt;&lt;font style=&quot;font-size: 8px;&quot;&gt;&lt;span style=&quot;color: #dcdcaa;&quot;&gt;load_config&lt;/span&gt;(&lt;span style=&quot;color: #4fc1ff;&quot;&gt;BOT_CONFIG_FILE_PATH&lt;/span&gt;)&lt;/font&gt;&lt;/div&gt;" style="text;html=1;strokeColor=none;fillColor=none;align=left;verticalAlign=middle;whiteSpace=wrap;rounded=0;fontFamily=Courier New;sketch=1;curveFitting=1;jiggle=2;" vertex="1" parent="jVToiQ2Ih4FxH2Exb9cz-1">
                    <mxGeometry x="334" y="254" width="250" height="30" as="geometry"/>
                </mxCell>
                <mxCell id="jVToiQ2Ih4FxH2Exb9cz-12" value="python main.py" style="html=1;verticalAlign=bottom;endArrow=block;fontFamily=Helvetica;fontSize=8;fontColor=#FFFFFF;rounded=0;sketch=1;curveFitting=1;jiggle=2;" edge="1" parent="jVToiQ2Ih4FxH2Exb9cz-1">
                    <mxGeometry width="80" relative="1" as="geometry">
                        <mxPoint x="18" y="196" as="sourcePoint"/>
                        <mxPoint x="149" y="199" as="targetPoint"/>
                    </mxGeometry>
                </mxCell>
                <mxCell id="qUzdqzggXnaoJ-nQjmiY-0" value="api.routes" style="shape=umlLifeline;perimeter=lifelinePerimeter;whiteSpace=wrap;html=1;container=1;collapsible=0;recursiveResize=0;outlineConnect=0;fontFamily=Courier New;rounded=0;sketch=1;curveFitting=1;jiggle=2;" vertex="1" parent="jVToiQ2Ih4FxH2Exb9cz-1">
                    <mxGeometry x="529" y="129" width="130" height="355" as="geometry"/>
                </mxCell>
                <object label="" id="qUzdqzggXnaoJ-nQjmiY-1">
                    <mxCell style="html=1;points=[];perimeter=orthogonalPerimeter;fontFamily=Courier New;rounded=0;sketch=1;curveFitting=1;jiggle=2;" vertex="1" parent="qUzdqzggXnaoJ-nQjmiY-0">
                        <mxGeometry x="60" y="250" width="10" height="64" as="geometry"/>
                    </mxCell>
                </object>
                <mxCell id="Y1pKb2DhGDYWR2Giz3Zf-2" value="&lt;font style=&quot;&quot;&gt;&lt;div style=&quot;background-color: rgb(31, 31, 31); line-height: 18px;&quot;&gt;&lt;div style=&quot;color: rgb(204, 204, 204); font-family: Menlo, Monaco, &amp;quot;Courier New&amp;quot;, monospace; line-height: 18px;&quot;&gt;&lt;font style=&quot;font-size: 8px;&quot;&gt;&lt;span style=&quot;color: rgb(220, 220, 170);&quot;&gt;@&lt;/span&gt;&lt;span style=&quot;color: rgb(156, 220, 254);&quot;&gt;router&lt;/span&gt;&lt;span style=&quot;color: rgb(220, 220, 170);&quot;&gt;.&lt;/span&gt;&lt;span style=&quot;color: rgb(220, 220, 170);&quot;&gt;post&lt;/span&gt;(&lt;span style=&quot;color: rgb(206, 145, 120);&quot;&gt;&quot;/crawls&quot;&lt;/span&gt;, &lt;span style=&quot;color: rgb(156, 220, 254);&quot;&gt;response_model&lt;/span&gt;&lt;span style=&quot;color: rgb(212, 212, 212);&quot;&gt;=&lt;/span&gt;&lt;span style=&quot;color: rgb(78, 201, 176);&quot;&gt;ExecutionInfo&lt;/span&gt;, &lt;span style=&quot;color: rgb(156, 220, 254);&quot;&gt;status_code&lt;/span&gt;&lt;span style=&quot;color: rgb(212, 212, 212);&quot;&gt;=&lt;/span&gt;&lt;span style=&quot;color: rgb(78, 201, 176);&quot;&gt;status&lt;/span&gt;.&lt;span style=&quot;color: rgb(156, 220, 254);&quot;&gt;HTTP_201_CREATED&lt;/span&gt;)&lt;br&gt;&lt;/font&gt;&lt;div style=&quot;line-height: 18px;&quot;&gt;&lt;div style=&quot;&quot;&gt;&lt;font style=&quot;font-size: 8px;&quot;&gt;&lt;span style=&quot;color: rgb(220, 220, 170);&quot;&gt;@&lt;/span&gt;&lt;span style=&quot;color: rgb(156, 220, 254);&quot;&gt;router&lt;/span&gt;&lt;span style=&quot;color: rgb(220, 220, 170);&quot;&gt;.&lt;/span&gt;&lt;span style=&quot;color: rgb(220, 220, 170);&quot;&gt;get&lt;/span&gt;(&lt;span style=&quot;color: rgb(206, 145, 120);&quot;&gt;&quot;/crawls/&lt;/span&gt;&lt;span style=&quot;color: rgb(86, 156, 214);&quot;&gt;{execution_id}&lt;/span&gt;&lt;span style=&quot;color: rgb(206, 145, 120);&quot;&gt;&quot;&lt;/span&gt;, &lt;span style=&quot;color: rgb(156, 220, 254);&quot;&gt;response_model&lt;/span&gt;&lt;span style=&quot;color: rgb(212, 212, 212);&quot;&gt;=&lt;/span&gt;&lt;span style=&quot;color: rgb(78, 201, 176);&quot;&gt;ExecutionInfo&lt;/span&gt;)&lt;br&gt;&lt;/font&gt;&lt;div style=&quot;line-height: 18px;&quot;&gt;&lt;font style=&quot;font-size: 8px;&quot;&gt;&lt;span style=&quot;color: rgb(220, 220, 170);&quot;&gt;@&lt;/span&gt;&lt;span style=&quot;color: rgb(156, 220, 254);&quot;&gt;router&lt;/span&gt;&lt;span style=&quot;color: rgb(220, 220, 170);&quot;&gt;.&lt;/span&gt;&lt;span style=&quot;color: rgb(220, 220, 170);&quot;&gt;get&lt;/span&gt;(&lt;span style=&quot;color: rgb(206, 145, 120);&quot;&gt;&quot;/crawls&quot;&lt;/span&gt;, &lt;span style=&quot;color: rgb(156, 220, 254);&quot;&gt;response_model&lt;/span&gt;&lt;span style=&quot;color: rgb(212, 212, 212);&quot;&gt;=&lt;/span&gt;&lt;span style=&quot;color: rgb(78, 201, 176);&quot;&gt;list&lt;/span&gt;[&lt;span style=&quot;color: rgb(78, 201, 176);&quot;&gt;ExecutionInfo&lt;/span&gt;])&lt;/font&gt;&lt;/div&gt;&lt;/div&gt;&lt;div style=&quot;font-size: 12px;&quot;&gt;&lt;span style=&quot;color: #569cd6;&quot;&gt;&lt;/span&gt;&lt;/div&gt;&lt;/div&gt;&lt;/div&gt;&lt;/div&gt;&lt;/font&gt;" style="text;html=1;strokeColor=none;fillColor=none;align=left;verticalAlign=middle;whiteSpace=wrap;rounded=0;fontFamily=Courier New;sketch=1;curveFitting=1;jiggle=2;" vertex="1" parent="jVToiQ2Ih4FxH2Exb9cz-1">
                    <mxGeometry x="607" y="396" width="457" height="30" as="geometry"/>
                </mxCell>
                <mxCell id="Y1pKb2DhGDYWR2Giz3Zf-3" value="&lt;span style=&quot;font-family: &amp;quot;Courier New&amp;quot;; font-size: 12px;&quot;&gt;uvicorn&lt;/span&gt;" style="shape=umlLifeline;perimeter=lifelinePerimeter;whiteSpace=wrap;html=1;container=1;collapsible=0;recursiveResize=0;outlineConnect=0;sketch=1;hachureGap=4;jiggle=2;curveFitting=1;fontFamily=Architects Daughter;fontSource=https%3A%2F%2Ffonts.googleapis.com%2Fcss%3Ffamily%3DArchitects%2BDaughter;fontSize=8;" vertex="1" parent="jVToiQ2Ih4FxH2Exb9cz-1">
                    <mxGeometry x="891" y="129" width="100" height="621" as="geometry"/>
                </mxCell>
                <mxCell id="Y1pKb2DhGDYWR2Giz3Zf-5" value="" style="html=1;points=[];perimeter=orthogonalPerimeter;sketch=1;hachureGap=4;jiggle=2;curveFitting=1;fontFamily=Architects Daughter;fontSource=https%3A%2F%2Ffonts.googleapis.com%2Fcss%3Ffamily%3DArchitects%2BDaughter;fontSize=8;" vertex="1" parent="Y1pKb2DhGDYWR2Giz3Zf-3">
                    <mxGeometry x="45" y="397" width="10" height="224" as="geometry"/>
                </mxCell>
                <mxCell id="Y1pKb2DhGDYWR2Giz3Zf-4" value="&lt;div style=&quot;color: rgb(204, 204, 204); background-color: rgb(31, 31, 31); font-family: Menlo, Monaco, &amp;quot;Courier New&amp;quot;, monospace; line-height: 18px;&quot;&gt;&lt;div style=&quot;line-height: 18px;&quot;&gt;&lt;div style=&quot;line-height: 18px;&quot;&gt;&lt;font style=&quot;font-size: 8px;&quot;&gt;&lt;span style=&quot;color: rgb(78, 201, 176);&quot;&gt;uvicorn&lt;/span&gt;.&lt;span style=&quot;color: rgb(220, 220, 170);&quot;&gt;run&lt;/span&gt;(&lt;span style=&quot;color: rgb(156, 220, 254);&quot;&gt;app&lt;/span&gt;, &lt;span style=&quot;color: rgb(156, 220, 254);&quot;&gt;host&lt;/span&gt;&lt;span style=&quot;color: rgb(212, 212, 212);&quot;&gt;=&lt;/span&gt;&lt;span style=&quot;color: rgb(206, 145, 120);&quot;&gt;&quot;0.0.0.0&quot;&lt;/span&gt;, &lt;span style=&quot;color: rgb(156, 220, 254);&quot;&gt;port&lt;/span&gt;&lt;span style=&quot;color: rgb(212, 212, 212);&quot;&gt;=&lt;/span&gt;&lt;span style=&quot;color: rgb(181, 206, 168);&quot;&gt;8000&lt;/span&gt;)&lt;/font&gt;&lt;/div&gt;&lt;/div&gt;&lt;/div&gt;" style="html=1;verticalAlign=bottom;endArrow=block;fontFamily=Courier New;rounded=0;sketch=1;curveFitting=1;jiggle=2;" edge="1" parent="jVToiQ2Ih4FxH2Exb9cz-1" target="Y1pKb2DhGDYWR2Giz3Zf-3">
                    <mxGeometry relative="1" as="geometry">
                        <mxPoint x="150" y="548.8" as="sourcePoint"/>
                        <mxPoint x="590.0099999999998" y="547" as="targetPoint"/>
                    </mxGeometry>
                </mxCell>
            </root>
        </mxGraphModel>
    </diagram>
    <diagram name="create_crawl sequence" id="sWaur6PaW-wAJX2JJbPQ">
        <mxGraphModel dx="708" dy="492" grid="0" gridSize="10" guides="1" tooltips="1" connect="1" arrows="1" fold="1" page="1" pageScale="1" pageWidth="1100" pageHeight="850" background="none" math="0" shadow="0">
            <root>
                <mxCell id="8H5OfyWu5kUQykp2E-FO-0"/>
                <mxCell id="8H5OfyWu5kUQykp2E-FO-1" parent="8H5OfyWu5kUQykp2E-FO-0"/>
                <mxCell id="8H5OfyWu5kUQykp2E-FO-2" value="uvicorn" style="shape=umlLifeline;perimeter=lifelinePerimeter;whiteSpace=wrap;html=1;container=1;collapsible=0;recursiveResize=0;outlineConnect=0;fontFamily=Courier New;rounded=0;sketch=1;curveFitting=1;jiggle=2;" vertex="1" parent="8H5OfyWu5kUQykp2E-FO-1">
                    <mxGeometry x="97" y="227" width="100" height="502" as="geometry"/>
                </mxCell>
                <mxCell id="DQ01xG4uVHYALVjPdNfZ-13" value="" style="html=1;points=[];perimeter=orthogonalPerimeter;sketch=1;hachureGap=4;jiggle=2;curveFitting=1;fontFamily=Architects Daughter;fontSource=https%3A%2F%2Ffonts.googleapis.com%2Fcss%3Ffamily%3DArchitects%2BDaughter;fontSize=8;" vertex="1" parent="8H5OfyWu5kUQykp2E-FO-2">
                    <mxGeometry x="45" y="65" width="10" height="217" as="geometry"/>
                </mxCell>
                <mxCell id="DQ01xG4uVHYALVjPdNfZ-14" value="&lt;span style=&quot;color: rgb(255, 255, 255); font-family: Helvetica;&quot;&gt;http://localhost:8000/crawls&lt;/span&gt;" style="html=1;verticalAlign=bottom;endArrow=block;entryX=0;entryY=0;sketch=1;hachureGap=4;jiggle=2;curveFitting=1;fontFamily=Architects Daughter;fontSource=https%3A%2F%2Ffonts.googleapis.com%2Fcss%3Ffamily%3DArchitects%2BDaughter;fontSize=8;" edge="1" target="DQ01xG4uVHYALVjPdNfZ-13" parent="8H5OfyWu5kUQykp2E-FO-2">
                    <mxGeometry relative="1" as="geometry">
                        <mxPoint x="-75" y="65" as="sourcePoint"/>
                    </mxGeometry>
                </mxCell>
                <mxCell id="DQ01xG4uVHYALVjPdNfZ-15" value="return" style="html=1;verticalAlign=bottom;endArrow=open;dashed=1;endSize=8;exitX=0;exitY=0.95;sketch=1;hachureGap=4;jiggle=2;curveFitting=1;fontFamily=Architects Daughter;fontSource=https%3A%2F%2Ffonts.googleapis.com%2Fcss%3Ffamily%3DArchitects%2BDaughter;fontSize=8;" edge="1" source="DQ01xG4uVHYALVjPdNfZ-13" parent="8H5OfyWu5kUQykp2E-FO-2">
                    <mxGeometry relative="1" as="geometry">
                        <mxPoint x="-76" y="271" as="targetPoint"/>
                    </mxGeometry>
                </mxCell>
                <mxCell id="8H5OfyWu5kUQykp2E-FO-9" value="api.routes" style="shape=umlLifeline;perimeter=lifelinePerimeter;whiteSpace=wrap;html=1;container=1;collapsible=0;recursiveResize=0;outlineConnect=0;fontFamily=Courier New;rounded=0;sketch=1;curveFitting=1;jiggle=2;" vertex="1" parent="8H5OfyWu5kUQykp2E-FO-1">
                    <mxGeometry x="246" y="227" width="113" height="372" as="geometry"/>
                </mxCell>
                <mxCell id="DQ01xG4uVHYALVjPdNfZ-6" value="" style="html=1;points=[];perimeter=orthogonalPerimeter;sketch=1;hachureGap=4;jiggle=2;curveFitting=1;fontFamily=Architects Daughter;fontSource=https%3A%2F%2Ffonts.googleapis.com%2Fcss%3Ffamily%3DArchitects%2BDaughter;fontSize=8;" vertex="1" parent="8H5OfyWu5kUQykp2E-FO-9">
                    <mxGeometry x="51.5" y="81" width="10" height="154" as="geometry"/>
                </mxCell>
                <mxCell id="DQ01xG4uVHYALVjPdNfZ-0" value="api.views" style="shape=umlLifeline;perimeter=lifelinePerimeter;whiteSpace=wrap;html=1;container=1;collapsible=0;recursiveResize=0;outlineConnect=0;fontFamily=Courier New;rounded=0;sketch=1;curveFitting=1;jiggle=2;" vertex="1" parent="8H5OfyWu5kUQykp2E-FO-1">
                    <mxGeometry x="415" y="227" width="113" height="316" as="geometry"/>
                </mxCell>
                <mxCell id="DQ01xG4uVHYALVjPdNfZ-10" value="" style="html=1;points=[];perimeter=orthogonalPerimeter;sketch=1;hachureGap=4;jiggle=2;curveFitting=1;fontFamily=Architects Daughter;fontSource=https%3A%2F%2Ffonts.googleapis.com%2Fcss%3Ffamily%3DArchitects%2BDaughter;fontSize=8;" vertex="1" parent="DQ01xG4uVHYALVjPdNfZ-0">
                    <mxGeometry x="51.5" y="91" width="10" height="116" as="geometry"/>
                </mxCell>
                <mxCell id="DQ01xG4uVHYALVjPdNfZ-3" value="&lt;div style=&quot;color: rgb(204, 204, 204); background-color: rgb(31, 31, 31); font-family: Menlo, Monaco, &amp;quot;Courier New&amp;quot;, monospace; line-height: 18px;&quot;&gt;&lt;font style=&quot;font-size: 8px;&quot;&gt;&lt;span style=&quot;color: rgb(220, 220, 170);&quot;&gt;@&lt;/span&gt;&lt;span style=&quot;color: rgb(156, 220, 254);&quot;&gt;celery_app&lt;/span&gt;&lt;span style=&quot;color: rgb(220, 220, 170);&quot;&gt;.&lt;/span&gt;&lt;span style=&quot;color: rgb(220, 220, 170);&quot;&gt;task&lt;/span&gt;&lt;/font&gt;&lt;/div&gt;app.tasks" style="shape=umlLifeline;perimeter=lifelinePerimeter;whiteSpace=wrap;html=1;container=1;collapsible=0;recursiveResize=0;outlineConnect=0;fontFamily=Courier New;rounded=0;sketch=1;curveFitting=1;jiggle=2;" vertex="1" parent="8H5OfyWu5kUQykp2E-FO-1">
                    <mxGeometry x="599" y="227" width="120" height="415" as="geometry"/>
                </mxCell>
                <object label="" id="DQ01xG4uVHYALVjPdNfZ-4">
                    <mxCell style="html=1;points=[];perimeter=orthogonalPerimeter;fontFamily=Courier New;rounded=0;sketch=1;curveFitting=1;jiggle=2;" vertex="1" parent="DQ01xG4uVHYALVjPdNfZ-3">
                        <mxGeometry x="51.5" y="114" width="10" height="299" as="geometry"/>
                    </mxCell>
                </object>
                <mxCell id="DQ01xG4uVHYALVjPdNfZ-5" value="&lt;div style=&quot;background-color: rgb(31, 31, 31); font-family: Menlo, Monaco, &amp;quot;Courier New&amp;quot;, monospace; line-height: 18px;&quot;&gt;&lt;div style=&quot;line-height: 18px;&quot;&gt;&lt;div style=&quot;color: rgb(204, 204, 204); line-height: 18px;&quot;&gt;&lt;div style=&quot;line-height: 18px;&quot;&gt;&lt;font style=&quot;font-size: 8px;&quot;&gt;&lt;span style=&quot;color: rgb(156, 220, 254);&quot;&gt;task&lt;/span&gt; &lt;span style=&quot;color: rgb(212, 212, 212);&quot;&gt;=&lt;/span&gt; &lt;span style=&quot;color: rgb(220, 220, 170);&quot;&gt;execute_crawl_task&lt;/span&gt;.delay()&lt;/font&gt;&lt;/div&gt;&lt;/div&gt;&lt;/div&gt;&lt;/div&gt;" style="html=1;verticalAlign=bottom;endArrow=block;fontFamily=Courier New;rounded=0;sketch=1;curveFitting=1;jiggle=2;entryX=-0.105;entryY=0.38;entryDx=0;entryDy=0;entryPerimeter=0;exitX=0.912;exitY=0.4;exitDx=0;exitDy=0;exitPerimeter=0;" edge="1" parent="8H5OfyWu5kUQykp2E-FO-1">
                    <mxGeometry x="-0.0012" y="3" relative="1" as="geometry">
                        <mxPoint x="476.4999999999998" y="351.84000000000003" as="sourcePoint"/>
                        <mxPoint x="649.45" y="351.84000000000003" as="targetPoint"/>
                        <mxPoint as="offset"/>
                    </mxGeometry>
                </mxCell>
                <mxCell id="DQ01xG4uVHYALVjPdNfZ-7" value="&lt;span style=&quot;color: rgb(156, 220, 254); font-family: Menlo, Monaco, &amp;quot;Courier New&amp;quot;, monospace; background-color: rgb(31, 31, 31);&quot;&gt;/crawls&lt;/span&gt;" style="html=1;verticalAlign=bottom;endArrow=block;entryX=0;entryY=0;sketch=1;hachureGap=4;jiggle=2;curveFitting=1;fontFamily=Architects Daughter;fontSource=https%3A%2F%2Ffonts.googleapis.com%2Fcss%3Ffamily%3DArchitects%2BDaughter;fontSize=8;" edge="1" target="DQ01xG4uVHYALVjPdNfZ-6" parent="8H5OfyWu5kUQykp2E-FO-1" source="8H5OfyWu5kUQykp2E-FO-2">
                    <mxGeometry relative="1" as="geometry">
                        <mxPoint x="229" y="388" as="sourcePoint"/>
                    </mxGeometry>
                </mxCell>
                <mxCell id="DQ01xG4uVHYALVjPdNfZ-8" value="return" style="html=1;verticalAlign=bottom;endArrow=open;dashed=1;endSize=8;exitX=0;exitY=0.95;sketch=1;hachureGap=4;jiggle=2;curveFitting=1;fontFamily=Architects Daughter;fontSource=https%3A%2F%2Ffonts.googleapis.com%2Fcss%3Ffamily%3DArchitects%2BDaughter;fontSize=8;" edge="1" source="DQ01xG4uVHYALVjPdNfZ-6" parent="8H5OfyWu5kUQykp2E-FO-1" target="8H5OfyWu5kUQykp2E-FO-2">
                    <mxGeometry relative="1" as="geometry">
                        <mxPoint x="229" y="464" as="targetPoint"/>
                    </mxGeometry>
                </mxCell>
                <mxCell id="DQ01xG4uVHYALVjPdNfZ-11" value="&lt;span style=&quot;font-family: Menlo, Monaco, &amp;quot;Courier New&amp;quot;, monospace; background-color: rgb(31, 31, 31); color: rgb(78, 201, 176);&quot;&gt;views&lt;/span&gt;&lt;span style=&quot;color: rgb(204, 204, 204); font-family: Menlo, Monaco, &amp;quot;Courier New&amp;quot;, monospace; background-color: rgb(31, 31, 31);&quot;&gt;.&lt;/span&gt;&lt;span style=&quot;font-family: Menlo, Monaco, &amp;quot;Courier New&amp;quot;, monospace; background-color: rgb(31, 31, 31); color: rgb(220, 220, 170);&quot;&gt;create_crawl&lt;/span&gt;&lt;span style=&quot;color: rgb(204, 204, 204); font-family: Menlo, Monaco, &amp;quot;Courier New&amp;quot;, monospace; background-color: rgb(31, 31, 31);&quot;&gt;()&lt;/span&gt;" style="html=1;verticalAlign=bottom;endArrow=block;entryX=0.15;entryY=0.087;sketch=1;hachureGap=4;jiggle=2;curveFitting=1;fontFamily=Architects Daughter;fontSource=https%3A%2F%2Ffonts.googleapis.com%2Fcss%3Ffamily%3DArchitects%2BDaughter;fontSize=8;exitX=1.201;exitY=0.118;exitDx=0;exitDy=0;exitPerimeter=0;entryDx=0;entryDy=0;entryPerimeter=0;" edge="1" target="DQ01xG4uVHYALVjPdNfZ-10" parent="8H5OfyWu5kUQykp2E-FO-1" source="DQ01xG4uVHYALVjPdNfZ-6">
                    <mxGeometry x="-0.0041" relative="1" as="geometry">
                        <mxPoint x="304.99999999999994" y="433.84400000000005" as="sourcePoint"/>
                        <mxPoint as="offset"/>
                    </mxGeometry>
                </mxCell>
                <mxCell id="DQ01xG4uVHYALVjPdNfZ-12" value="&lt;div style=&quot;color: rgb(204, 204, 204); background-color: rgb(31, 31, 31); font-family: Menlo, Monaco, &amp;quot;Courier New&amp;quot;, monospace; line-height: 18px;&quot;&gt;&lt;font style=&quot;font-size: 6px;&quot;&gt;&lt;span style=&quot;color: rgb(197, 134, 192);&quot;&gt;return&lt;/span&gt; {&lt;span style=&quot;color: rgb(206, 145, 120);&quot;&gt;&quot;task_id&quot;&lt;/span&gt;: &lt;span style=&quot;color: rgb(78, 201, 176);&quot;&gt;str&lt;/span&gt;(&lt;span style=&quot;color: rgb(156, 220, 254);&quot;&gt;task&lt;/span&gt;.id),&amp;nbsp;&amp;nbsp;&lt;/font&gt;&lt;/div&gt;&lt;div style=&quot;color: rgb(204, 204, 204); background-color: rgb(31, 31, 31); font-family: Menlo, Monaco, &amp;quot;Courier New&amp;quot;, monospace; line-height: 18px;&quot;&gt;&lt;font style=&quot;font-size: 6px;&quot;&gt;&lt;span style=&quot;color: rgb(206, 145, 120);&quot;&gt;&quot;status&quot;&lt;/span&gt;: &lt;span style=&quot;color: rgb(206, 145, 120);&quot;&gt;&quot;pending&quot;&lt;/span&gt;,&amp;nbsp;&lt;/font&gt;&lt;/div&gt;&lt;div style=&quot;color: rgb(204, 204, 204); background-color: rgb(31, 31, 31); font-family: Menlo, Monaco, &amp;quot;Courier New&amp;quot;, monospace; line-height: 18px;&quot;&gt;&lt;font style=&quot;font-size: 6px;&quot;&gt;&lt;span style=&quot;color: rgb(206, 145, 120);&quot;&gt;&quot;details&quot;&lt;/span&gt;: &lt;span style=&quot;color: rgb(206, 145, 120);&quot;&gt;&quot;Crawl task submitted&quot;&lt;/span&gt;,&amp;nbsp;&lt;/font&gt;&lt;/div&gt;&lt;div style=&quot;color: rgb(204, 204, 204); background-color: rgb(31, 31, 31); font-family: Menlo, Monaco, &amp;quot;Courier New&amp;quot;, monospace; line-height: 18px;&quot;&gt;&lt;font style=&quot;font-size: 6px;&quot;&gt;&lt;span style=&quot;color: rgb(206, 145, 120);&quot;&gt;&quot;bot_name&quot;&lt;/span&gt;:&amp;nbsp;&lt;/font&gt;&lt;span style=&quot;font-size: 6px; color: rgb(79, 193, 255);&quot;&gt;BOT_NAME&lt;/span&gt;&lt;span style=&quot;font-size: 6px;&quot;&gt;,&amp;nbsp;&lt;/span&gt;&lt;/div&gt;&lt;div style=&quot;color: rgb(204, 204, 204); background-color: rgb(31, 31, 31); font-family: Menlo, Monaco, &amp;quot;Courier New&amp;quot;, monospace; line-height: 18px;&quot;&gt;&lt;span style=&quot;font-size: 6px; color: rgb(206, 145, 120);&quot;&gt;&quot;url_crawled&quot;&lt;/span&gt;&lt;span style=&quot;font-size: 6px;&quot;&gt;: &lt;/span&gt;&lt;span style=&quot;font-size: 6px; color: rgb(79, 193, 255);&quot;&gt;URL_CRAWLED&lt;/span&gt;&lt;span style=&quot;font-size: 6px;&quot;&gt;}&lt;/span&gt;&lt;/div&gt;" style="html=1;verticalAlign=bottom;endArrow=open;dashed=1;endSize=8;exitX=0;exitY=0.95;sketch=1;hachureGap=4;jiggle=2;curveFitting=1;fontFamily=Architects Daughter;fontSource=https%3A%2F%2Ffonts.googleapis.com%2Fcss%3Ffamily%3DArchitects%2BDaughter;fontSize=8;entryX=1.412;entryY=0.769;entryDx=0;entryDy=0;entryPerimeter=0;" edge="1" source="DQ01xG4uVHYALVjPdNfZ-10" parent="8H5OfyWu5kUQykp2E-FO-1" target="DQ01xG4uVHYALVjPdNfZ-6">
                    <mxGeometry x="-0.0022" y="108" relative="1" as="geometry">
                        <mxPoint x="395.66" y="509" as="targetPoint"/>
                        <mxPoint as="offset"/>
                    </mxGeometry>
                </mxCell>
                <mxCell id="DQ01xG4uVHYALVjPdNfZ-16" value="app.crawler.Webcrawler" style="shape=umlLifeline;perimeter=lifelinePerimeter;whiteSpace=wrap;html=1;container=1;collapsible=0;recursiveResize=0;outlineConnect=0;fontFamily=Courier New;rounded=0;sketch=1;curveFitting=1;jiggle=2;" vertex="1" parent="8H5OfyWu5kUQykp2E-FO-1">
                    <mxGeometry x="782" y="227" width="166" height="269" as="geometry"/>
                </mxCell>
                <mxCell id="DQ01xG4uVHYALVjPdNfZ-19" value="" style="html=1;points=[];perimeter=orthogonalPerimeter;sketch=1;hachureGap=4;jiggle=2;curveFitting=1;fontFamily=Architects Daughter;fontSource=https%3A%2F%2Ffonts.googleapis.com%2Fcss%3Ffamily%3DArchitects%2BDaughter;fontSize=8;" vertex="1" parent="DQ01xG4uVHYALVjPdNfZ-16">
                    <mxGeometry x="75.5" y="138" width="10" height="23" as="geometry"/>
                </mxCell>
                <mxCell id="DQ01xG4uVHYALVjPdNfZ-23" value="" style="html=1;points=[];perimeter=orthogonalPerimeter;sketch=1;hachureGap=4;jiggle=2;curveFitting=1;fontFamily=Architects Daughter;fontSource=https%3A%2F%2Ffonts.googleapis.com%2Fcss%3Ffamily%3DArchitects%2BDaughter;fontSize=8;" vertex="1" parent="DQ01xG4uVHYALVjPdNfZ-16">
                    <mxGeometry x="75.5" y="190" width="10" height="39" as="geometry"/>
                </mxCell>
                <mxCell id="DQ01xG4uVHYALVjPdNfZ-20" value="&lt;div style=&quot;color: rgb(204, 204, 204); background-color: rgb(31, 31, 31); font-family: Menlo, Monaco, &amp;quot;Courier New&amp;quot;, monospace; line-height: 18px;&quot;&gt;&lt;font style=&quot;font-size: 6px;&quot;&gt;&lt;span style=&quot;color: rgb(156, 220, 254);&quot;&gt;crawler&lt;/span&gt; &lt;span style=&quot;color: rgb(212, 212, 212);&quot;&gt;=&lt;/span&gt; &lt;span style=&quot;color: rgb(78, 201, 176);&quot;&gt;WebCrawler&lt;/span&gt;(&lt;span style=&quot;color: rgb(156, 220, 254);&quot;&gt;bot_name&lt;/span&gt;&lt;span style=&quot;color: rgb(212, 212, 212);&quot;&gt;=&lt;/span&gt;&lt;span style=&quot;color: rgb(78, 201, 176);&quot;&gt;settings&lt;/span&gt;.&lt;span style=&quot;color: rgb(156, 220, 254);&quot;&gt;BOT_NAME&lt;/span&gt;, &lt;span style=&quot;color: rgb(156, 220, 254);&quot;&gt;start_url&lt;/span&gt;&lt;span style=&quot;color: rgb(212, 212, 212);&quot;&gt;=&lt;/span&gt;&lt;span style=&quot;color: rgb(78, 201, 176);&quot;&gt;settings&lt;/span&gt;.&lt;span style=&quot;color: rgb(156, 220, 254);&quot;&gt;URL_CRAWLED&lt;/span&gt;)&lt;/font&gt;&lt;/div&gt;" style="html=1;verticalAlign=bottom;endArrow=block;entryX=0;entryY=0;sketch=1;hachureGap=4;jiggle=2;curveFitting=1;fontFamily=Architects Daughter;fontSource=https%3A%2F%2Ffonts.googleapis.com%2Fcss%3Ffamily%3DArchitects%2BDaughter;fontSize=8;exitX=1.392;exitY=0.057;exitDx=0;exitDy=0;exitPerimeter=0;" edge="1" target="DQ01xG4uVHYALVjPdNfZ-19" parent="8H5OfyWu5kUQykp2E-FO-1" source="DQ01xG4uVHYALVjPdNfZ-4">
                    <mxGeometry x="0.4216" y="5" relative="1" as="geometry">
                        <mxPoint x="764" y="351" as="sourcePoint"/>
                        <mxPoint as="offset"/>
                    </mxGeometry>
                </mxCell>
                <mxCell id="DQ01xG4uVHYALVjPdNfZ-21" value="return" style="html=1;verticalAlign=bottom;endArrow=open;dashed=1;endSize=8;exitX=0;exitY=0.95;sketch=1;hachureGap=4;jiggle=2;curveFitting=1;fontFamily=Architects Daughter;fontSource=https%3A%2F%2Ffonts.googleapis.com%2Fcss%3Ffamily%3DArchitects%2BDaughter;fontSize=8;" edge="1" source="DQ01xG4uVHYALVjPdNfZ-19" parent="8H5OfyWu5kUQykp2E-FO-1" target="DQ01xG4uVHYALVjPdNfZ-3">
                    <mxGeometry relative="1" as="geometry">
                        <mxPoint x="764" y="427" as="targetPoint"/>
                    </mxGeometry>
                </mxCell>
                <mxCell id="DQ01xG4uVHYALVjPdNfZ-24" value="&lt;div style=&quot;color: rgb(204, 204, 204); background-color: rgb(31, 31, 31); font-family: Menlo, Monaco, &amp;quot;Courier New&amp;quot;, monospace; line-height: 18px;&quot;&gt;&lt;font style=&quot;font-size: 8px;&quot;&gt;&lt;span style=&quot;color: rgb(156, 220, 254);&quot;&gt;execution_data&lt;/span&gt; &lt;span style=&quot;color: rgb(212, 212, 212);&quot;&gt;=&lt;/span&gt; &lt;span style=&quot;color: rgb(156, 220, 254);&quot;&gt;crawler&lt;/span&gt;.&lt;span style=&quot;color: rgb(220, 220, 170);&quot;&gt;start_crawl&lt;/span&gt;()&lt;/font&gt;&lt;/div&gt;" style="html=1;verticalAlign=bottom;endArrow=block;entryX=0;entryY=0;sketch=1;hachureGap=4;jiggle=2;curveFitting=1;fontFamily=Architects Daughter;fontSource=https%3A%2F%2Ffonts.googleapis.com%2Fcss%3Ffamily%3DArchitects%2BDaughter;fontSize=8;" edge="1" target="DQ01xG4uVHYALVjPdNfZ-23" parent="8H5OfyWu5kUQykp2E-FO-1">
                    <mxGeometry relative="1" as="geometry">
                        <mxPoint x="660" y="417" as="sourcePoint"/>
                    </mxGeometry>
                </mxCell>
                <mxCell id="DQ01xG4uVHYALVjPdNfZ-25" value="return" style="html=1;verticalAlign=bottom;endArrow=open;dashed=1;endSize=8;exitX=0;exitY=0.95;sketch=1;hachureGap=4;jiggle=2;curveFitting=1;fontFamily=Architects Daughter;fontSource=https%3A%2F%2Ffonts.googleapis.com%2Fcss%3Ffamily%3DArchitects%2BDaughter;fontSize=8;" edge="1" source="DQ01xG4uVHYALVjPdNfZ-23" parent="8H5OfyWu5kUQykp2E-FO-1" target="DQ01xG4uVHYALVjPdNfZ-3">
                    <mxGeometry x="-0.0095" relative="1" as="geometry">
                        <mxPoint x="845.5" y="481" as="targetPoint"/>
                        <mxPoint as="offset"/>
                    </mxGeometry>
                </mxCell>
                <mxCell id="DQ01xG4uVHYALVjPdNfZ-31" value="" style="edgeStyle=none;sketch=1;hachureGap=4;jiggle=2;curveFitting=1;html=1;fontFamily=Architects Daughter;fontSource=https%3A%2F%2Ffonts.googleapis.com%2Fcss%3Ffamily%3DArchitects%2BDaughter;fontSize=6;" edge="1" parent="8H5OfyWu5kUQykp2E-FO-1" source="DQ01xG4uVHYALVjPdNfZ-23" target="DQ01xG4uVHYALVjPdNfZ-33">
                    <mxGeometry relative="1" as="geometry">
                        <mxPoint x="993" y="436.19791666666674" as="targetPoint"/>
                    </mxGeometry>
                </mxCell>
                <mxCell id="DQ01xG4uVHYALVjPdNfZ-33" value="" style="html=1;verticalLabelPosition=bottom;align=center;labelBackgroundColor=#ffffff;verticalAlign=top;strokeWidth=2;strokeColor=#0080F0;shadow=0;dashed=0;shape=mxgraph.ios7.icons.settings;sketch=1;hachureGap=4;jiggle=2;curveFitting=1;fontFamily=Architects Daughter;fontSource=https%3A%2F%2Ffonts.googleapis.com%2Fcss%3Ffamily%3DArchitects%2BDaughter;fontSize=6;" vertex="1" parent="8H5OfyWu5kUQykp2E-FO-1">
                    <mxGeometry x="936" y="419.49791666666675" width="30" height="30" as="geometry"/>
                </mxCell>
                <mxCell id="DQ01xG4uVHYALVjPdNfZ-34" value="&lt;div style=&quot;color: rgb(204, 204, 204); background-color: rgb(31, 31, 31); font-family: Menlo, Monaco, &amp;quot;Courier New&amp;quot;, monospace; line-height: 18px;&quot;&gt;&lt;span style=&quot;color: rgb(240, 240, 240); font-family: &amp;quot;Courier New&amp;quot;; background-color: rgb(42, 37, 47);&quot;&gt;ExecutionInfo (mongoengine)&lt;/span&gt;&lt;br&gt;&lt;/div&gt;" style="shape=umlLifeline;perimeter=lifelinePerimeter;whiteSpace=wrap;html=1;container=1;collapsible=0;recursiveResize=0;outlineConnect=0;fontFamily=Courier New;rounded=0;sketch=1;curveFitting=1;jiggle=2;" vertex="1" parent="8H5OfyWu5kUQykp2E-FO-1">
                    <mxGeometry x="974" y="225" width="113" height="419" as="geometry"/>
                </mxCell>
                <mxCell id="DQ01xG4uVHYALVjPdNfZ-37" value="" style="html=1;points=[];perimeter=orthogonalPerimeter;sketch=1;hachureGap=4;jiggle=2;curveFitting=1;fontFamily=Architects Daughter;fontSource=https%3A%2F%2Ffonts.googleapis.com%2Fcss%3Ffamily%3DArchitects%2BDaughter;fontSize=6;" vertex="1" parent="DQ01xG4uVHYALVjPdNfZ-34">
                    <mxGeometry x="53" y="282" width="10" height="28" as="geometry"/>
                </mxCell>
                <mxCell id="DQ01xG4uVHYALVjPdNfZ-41" value="" style="html=1;points=[];perimeter=orthogonalPerimeter;sketch=1;hachureGap=4;jiggle=2;curveFitting=1;fontFamily=Architects Daughter;fontSource=https%3A%2F%2Ffonts.googleapis.com%2Fcss%3Ffamily%3DArchitects%2BDaughter;fontSize=8;" vertex="1" parent="DQ01xG4uVHYALVjPdNfZ-34">
                    <mxGeometry x="53" y="346" width="10" height="29" as="geometry"/>
                </mxCell>
                <mxCell id="DQ01xG4uVHYALVjPdNfZ-38" value="&lt;div style=&quot;color: rgb(204, 204, 204); background-color: rgb(31, 31, 31); font-family: Menlo, Monaco, &amp;quot;Courier New&amp;quot;, monospace; line-height: 18px;&quot;&gt;&lt;font style=&quot;font-size: 8px;&quot;&gt;&lt;span style=&quot;color: rgb(156, 220, 254);&quot;&gt;execution_info&lt;/span&gt; &lt;span style=&quot;color: rgb(212, 212, 212);&quot;&gt;=&lt;/span&gt; &lt;span style=&quot;color: rgb(78, 201, 176);&quot;&gt;ExecutionInfo&lt;/span&gt;(execution_data...)&lt;/font&gt;&lt;/div&gt;" style="html=1;verticalAlign=bottom;endArrow=block;entryX=0;entryY=0;sketch=1;hachureGap=4;jiggle=2;curveFitting=1;fontFamily=Architects Daughter;fontSource=https%3A%2F%2Ffonts.googleapis.com%2Fcss%3Ffamily%3DArchitects%2BDaughter;fontSize=6;" edge="1" target="DQ01xG4uVHYALVjPdNfZ-37" parent="8H5OfyWu5kUQykp2E-FO-1" source="DQ01xG4uVHYALVjPdNfZ-3">
                    <mxGeometry relative="1" as="geometry">
                        <mxPoint x="1052" y="509" as="sourcePoint"/>
                    </mxGeometry>
                </mxCell>
                <mxCell id="DQ01xG4uVHYALVjPdNfZ-39" value="return" style="html=1;verticalAlign=bottom;endArrow=open;dashed=1;endSize=8;exitX=0;exitY=0.95;sketch=1;hachureGap=4;jiggle=2;curveFitting=1;fontFamily=Architects Daughter;fontSource=https%3A%2F%2Ffonts.googleapis.com%2Fcss%3Ffamily%3DArchitects%2BDaughter;fontSize=6;" edge="1" source="DQ01xG4uVHYALVjPdNfZ-37" parent="8H5OfyWu5kUQykp2E-FO-1" target="DQ01xG4uVHYALVjPdNfZ-3">
                    <mxGeometry relative="1" as="geometry">
                        <mxPoint x="1052" y="585" as="targetPoint"/>
                    </mxGeometry>
                </mxCell>
                <mxCell id="DQ01xG4uVHYALVjPdNfZ-42" value="&lt;div style=&quot;color: rgb(204, 204, 204); background-color: rgb(31, 31, 31); font-family: Menlo, Monaco, &amp;quot;Courier New&amp;quot;, monospace; line-height: 18px;&quot;&gt;&lt;font style=&quot;font-size: 8px;&quot;&gt;&lt;span style=&quot;color: rgb(156, 220, 254);&quot;&gt;execution_info&lt;/span&gt;.&lt;span style=&quot;color: rgb(220, 220, 170);&quot;&gt;save&lt;/span&gt;()&lt;/font&gt;&lt;/div&gt;" style="html=1;verticalAlign=bottom;endArrow=block;entryX=0;entryY=0;sketch=1;hachureGap=4;jiggle=2;curveFitting=1;fontFamily=Architects Daughter;fontSource=https%3A%2F%2Ffonts.googleapis.com%2Fcss%3Ffamily%3DArchitects%2BDaughter;fontSize=8;exitX=1.235;exitY=0.764;exitDx=0;exitDy=0;exitPerimeter=0;" edge="1" target="DQ01xG4uVHYALVjPdNfZ-41" parent="8H5OfyWu5kUQykp2E-FO-1" source="DQ01xG4uVHYALVjPdNfZ-4">
                    <mxGeometry relative="1" as="geometry">
                        <mxPoint x="1052" y="566" as="sourcePoint"/>
                    </mxGeometry>
                </mxCell>
                <mxCell id="DQ01xG4uVHYALVjPdNfZ-43" value="return" style="html=1;verticalAlign=bottom;endArrow=open;dashed=1;endSize=8;sketch=1;hachureGap=4;jiggle=2;curveFitting=1;fontFamily=Architects Daughter;fontSource=https%3A%2F%2Ffonts.googleapis.com%2Fcss%3Ffamily%3DArchitects%2BDaughter;fontSize=8;" edge="1" parent="8H5OfyWu5kUQykp2E-FO-1">
                    <mxGeometry relative="1" as="geometry">
                        <mxPoint x="658.3235294117646" y="596.5" as="targetPoint"/>
                        <mxPoint x="1029" y="597" as="sourcePoint"/>
                    </mxGeometry>
                </mxCell>
            </root>
        </mxGraphModel>
    </diagram>
</mxfile>